{
  "accessors": [
    {
      "bufferView": 1,
      "componentType": 5126,
      "count": 236,
      "max": [
        0.56633901596069336,
        0.52722400426864624,
        0.55439299345016479
      ],
      "min": [
        -0.43405300378799438,
        -0.45938900113105774,
        -0.0021840000990778208
      ],
      "type": "VEC3"
    },
    {
      "bufferView": 1,
      "byteOffset": 2832,
      "componentType": 5126,
      "count": 236,
      "max": [
        0.99944150447845459,
        0.96052384376525879,
        0.99908024072647095
      ],
      "min": [
        -0.99962764978408813,
        -0.98702633380889893,
        -1
      ],
      "type": "VEC3"
    },
    {
      "bufferView": 0,
      "componentType": 5125,
      "count": 360,
      "max": [
        235
      ],
      "min": [
        0
      ],
      "type": "SCALAR"
    },
    {
      "bufferView": 1,
      "byteOffset": 5664,
      "componentType": 5126,
      "count": 26,
      "max": [
        0.25444099307060242,
        0.39430800080299377,
        0.55439299345016479
      ],
      "min": [
        -0.25749000906944275,
        -0.34966000914573669,
        0.45032399892807007
      ],
      "type": "VEC3"
    },
    {
      "bufferView": 1,
      "byteOffset": 5976,
      "componentType": 5126,
      "count": 26,
      "max": [
        0.99182069301605225,
        0.43570971488952637,
        0.99924987554550171
      ],
      "min": [
        -0.85380846261978149,
        -0.18750894069671631,
        0.12750265002250671
      ],
      "type": "VEC3"
    },
    {
      "bufferView": 0,
      "byteOffset": 1440,
      "componentType": 5125,
      "count": 42,
      "max": [
        25
      ],
      "min": [
        0
      ],
      "type": "SCALAR"
    }
  ],
  "asset": {
    "extras": {
      "author": "Anskar (https://sketchfab.com/Anskar)",
      "license": "CC-BY-4.0 (http://creativecommons.org/licenses/by/4.0/)",
      "source": "https://sketchfab.com/3d-models/low-poly-tree-trunk-d730685ed838498f9d8f7de64989dd9a",
      "title": "Low poly Tree Trunk"
    },
    "generator": "Sketchfab-7.67.0",
    "version": "2.0"
  },
  "bufferViews": [
    {
      "buffer": 0,
      "byteLength": 1608,
      "byteOffset": 0,
      "name": "floatBufferViews",
      "target": 34963
    },
    {
      "buffer": 0,
      "byteLength": 6288,
      "byteOffset": 1608,
      "byteStride": 12,
      "name": "floatBufferViews",
      "target": 34962
    }
  ],
  "buffers": [
    {
      "byteLength": 7896,
      "uri": "scene.bin"
    }
  ],
  "materials": [
    {
      "doubleSided": true,
      "emissiveFactor": [
        0,
        0,
        0
      ],
      "name": "Wood",
      "pbrMetallicRoughness": {
        "baseColorFactor": [
          0.33861400000000003,
          0.12962399999999999,
          0.067501000000000005,
          1
        ],
        "metallicFactor": 0,
        "roughnessFactor": 0.84349154199267129
      }
    },
    {
      "doubleSided": true,
      "emissiveFactor": [
        0,
        0,
        0
      ],
      "name": "Wood_light",
      "pbrMetallicRoughness": {
        "baseColorFactor": [
          0.56210400000000005,
          0.30366799999999999,
          0.109166,
          1
        ],
        "metallicFactor": 0,
        "roughnessFactor": 0.84349154199267129
      }
    }
  ],
  "meshes": [
    {
      "primitives": [
        {
          "attributes": {
            "NORMAL": 1,
            "POSITION": 0
          },
          "indices": 2,
          "material": 0,
          "mode": 4
        }
      ]
    },
    {
      "primitives": [
        {
          "attributes": {
            "NORMAL": 4,
            "POSITION": 3
          },
          "indices": 5,
          "material": 1,
          "mode": 4
        }
      ]
    }
  ],
  "nodes": [
    {
      "children": [
        1
      ],
      "name": "RootNode (gltf orientation matrix)",
      "rotation": [
        -0.70710678118654746,
        -0,
        -0,
        0.70710678118654757
      ]
    },
    {
      "children": [
        2
      ],
      "name": "RootNode (model correction matrix)"
    },
    {
      "children": [
        3,
        4
      ],
      "name": "Low poly Trunk.obj.cleaner.materialmerger.gles"
    },
    {
      "mesh": 0,
      "name": ""
    },
    {
      "mesh": 1,
      "name": ""
    }
  ],
  "scene": 0,
  "scenes": [
    {
      "name": "OSG_Scene",
      "nodes": [
        0
      ]
    }
  ]
}

