{
    "asset" : {
        "generator" : "Khronos glTF Blender I/O v1.2.75",
        "version" : "2.0"
    },
    "scene" : 0,
    "scenes" : [
        {
            "name" : "Scene",
            "nodes" : [
                0,
                1,
                2,
                3,
                4,
                5,
                6,
                7
            ]
        }
    ],
    "nodes" : [
        {
            "name" : "Light",
            "rotation" : [
                0.16907575726509094,
                0.7558803558349609,
                -0.27217137813568115,
                0.570947527885437
            ],
            "translation" : [
                4.076245307922363,
                5.903861999511719,
                -1.0054539442062378
            ]
        },
        {
            "name" : "Camera",
            "rotation" : [
                0.483536034822464,
                0.33687159419059753,
                -0.20870360732078552,
                0.7804827094078064
            ],
            "translation" : [
                7.358891487121582,
                4.958309173583984,
                6.925790786743164
            ]
        },
        {
            "mesh" : 0,
            "name" : "Cylinder",
            "scale" : [
                0.7846930623054504,
                0.7846930623054504,
                0.7846930623054504
            ],
            "translation" : [
                0.0009978839661926031,
                1.1042816638946533,
                0.0031178994104266167
            ]
        },
        {
            "mesh" : 1,
            "name" : "Cylinder.001",
            "rotation" : [
                0,
                -0.18472430109977722,
                0,
                0.9827904105186462
            ],
            "scale" : [
                0.7846930623054504,
                0.7846930623054504,
                0.7846930623054504
            ],
            "translation" : [
                0.0009978839661926031,
                2.832120656967163,
                0.0031178994104266167
            ]
        },
        {
            "mesh" : 2,
            "name" : "Cylinder.002",
            "rotation" : [
                -0.06723908334970474,
                -0.0025901589542627335,
                0.03840583190321922,
                0.9969940781593323
            ],
            "scale" : [
                0.7846931219100952,
                0.7846930623054504,
                0.7846930623054504
            ],
            "translation" : [
                0.0009978839661926031,
                4.191314220428467,
                0.0031178994104266167
            ]
        },
        {
            "mesh" : 3,
            "name" : "Cylinder.003",
            "rotation" : [
                -0.03069048747420311,
                -0.002605097135528922,
                0.004531973507255316,
                0.9995152950286865
            ],
            "scale" : [
                0.7846930623054504,
                0.7846930623054504,
                0.7846931219100952
            ],
            "translation" : [
                0.0009978839661926031,
                5.307346343994141,
                0.0031178994104266167
            ]
        },
        {
            "mesh" : 4,
            "name" : "Cylinder.004",
            "rotation" : [
                0.037131406366825104,
                0.0031518209725618362,
                -0.005483084823936224,
                0.999290406703949
            ],
            "scale" : [
                0.7846930623054504,
                0.7846931219100952,
                0.7846930623054504
            ],
            "translation" : [
                0.0009978839661926031,
                6.12388277053833,
                0.0031178994104266167
            ]
        },
        {
            "mesh" : 5,
            "name" : "Cylinder.005",
            "rotation" : [
                0.037131406366825104,
                0.0031518209725618362,
                -0.005483084823936224,
                0.999290406703949
            ],
            "scale" : [
                0.7846930623054504,
                0.7846931219100952,
                0.7846930623054504
            ],
            "translation" : [
                0.022818805649876595,
                7.131496429443359,
                0.07129760086536407
            ]
        }
    ],
    "materials" : [
        {
            "doubleSided" : true,
            "emissiveFactor" : [
                0,
                0,
                0
            ],
            "name" : "Material.001",
            "pbrMetallicRoughness" : {
                "baseColorFactor" : [
                    0.19962093234062195,
                    0.09062574058771133,
                    0.031141648069024086,
                    1
                ],
                "metallicFactor" : 0,
                "roughnessFactor" : 0.5
            }
        },
        {
            "doubleSided" : true,
            "emissiveFactor" : [
                0,
                0,
                0
            ],
            "name" : "Material.002",
            "pbrMetallicRoughness" : {
                "baseColorFactor" : [
                    0.025619003921747208,
                    0.21987949311733246,
                    0.0055785165168344975,
                    1
                ],
                "metallicFactor" : 0,
                "roughnessFactor" : 0.5
            }
        }
    ],
    "meshes" : [
        {
            "name" : "Cylinder",
            "primitives" : [
                {
                    "attributes" : {
                        "POSITION" : 0,
                        "NORMAL" : 1,
                        "TEXCOORD_0" : 2
                    },
                    "indices" : 3,
                    "material" : 0
                }
            ]
        },
        {
            "name" : "Cylinder.001",
            "primitives" : [
                {
                    "attributes" : {
                        "POSITION" : 4,
                        "NORMAL" : 5,
                        "TEXCOORD_0" : 6
                    },
                    "indices" : 7,
                    "material" : 1
                }
            ]
        },
        {
            "name" : "Cylinder.002",
            "primitives" : [
                {
                    "attributes" : {
                        "POSITION" : 8,
                        "NORMAL" : 9,
                        "TEXCOORD_0" : 10
                    },
                    "indices" : 11,
                    "material" : 1
                }
            ]
        },
        {
            "name" : "Cylinder.003",
            "primitives" : [
                {
                    "attributes" : {
                        "POSITION" : 12,
                        "NORMAL" : 13,
                        "TEXCOORD_0" : 14
                    },
                    "indices" : 15,
                    "material" : 1
                }
            ]
        },
        {
            "name" : "Cylinder.004",
            "primitives" : [
                {
                    "attributes" : {
                        "POSITION" : 16,
                        "NORMAL" : 17,
                        "TEXCOORD_0" : 18
                    },
                    "indices" : 19,
                    "material" : 1
                }
            ]
        },
        {
            "name" : "Cylinder.005",
            "primitives" : [
                {
                    "attributes" : {
                        "POSITION" : 20,
                        "NORMAL" : 21,
                        "TEXCOORD_0" : 22
                    },
                    "indices" : 23,
                    "material" : 1
                }
            ]
        }
    ],
    "accessors" : [
        {
            "bufferView" : 0,
            "componentType" : 5126,
            "count" : 36,
            "max" : [
                0.866025447845459,
                1.3358782529830933,
                1
            ],
            "min" : [
                -0.866025447845459,
                -1.3358782529830933,
                -1
            ],
            "type" : "VEC3"
        },
        {
            "bufferView" : 1,
            "componentType" : 5126,
            "count" : 36,
            "type" : "VEC3"
        },
        {
            "bufferView" : 2,
            "componentType" : 5126,
            "count" : 36,
            "type" : "VEC2"
        },
        {
            "bufferView" : 3,
            "componentType" : 5123,
            "count" : 60,
            "type" : "SCALAR"
        },
        {
            "bufferView" : 4,
            "componentType" : 5126,
            "count" : 104,
            "max" : [
                2.4389829635620117,
                1.2514599561691284,
                2.7467048168182373
            ],
            "min" : [
                -2.431281805038452,
                -1.2514601945877075,
                -2.8122034072875977
            ],
            "type" : "VEC3"
        },
        {
            "bufferView" : 5,
            "componentType" : 5126,
            "count" : 104,
            "type" : "VEC3"
        },
        {
            "bufferView" : 6,
            "componentType" : 5126,
            "count" : 104,
            "type" : "VEC2"
        },
        {
            "bufferView" : 7,
            "componentType" : 5123,
            "count" : 168,
            "type" : "SCALAR"
        },
        {
            "bufferView" : 8,
            "componentType" : 5126,
            "count" : 90,
            "max" : [
                2.287715196609497,
                1.153303861618042,
                2.5312719345092773
            ],
            "min" : [
                -2.192146062850952,
                -1.153304100036621,
                -2.5312719345092773
            ],
            "type" : "VEC3"
        },
        {
            "bufferView" : 9,
            "componentType" : 5126,
            "count" : 90,
            "type" : "VEC3"
        },
        {
            "bufferView" : 10,
            "componentType" : 5126,
            "count" : 90,
            "type" : "VEC2"
        },
        {
            "bufferView" : 11,
            "componentType" : 5123,
            "count" : 156,
            "type" : "SCALAR"
        },
        {
            "bufferView" : 12,
            "componentType" : 5126,
            "count" : 108,
            "max" : [
                1.773294448852539,
                1.1828144788742065,
                2.047623872756958
            ],
            "min" : [
                -1.773294448852539,
                -0.9329432249069214,
                -2.047623872756958
            ],
            "type" : "VEC3"
        },
        {
            "bufferView" : 13,
            "componentType" : 5126,
            "count" : 108,
            "type" : "VEC3"
        },
        {
            "bufferView" : 14,
            "componentType" : 5126,
            "count" : 108,
            "type" : "VEC2"
        },
        {
            "bufferView" : 15,
            "componentType" : 5123,
            "count" : 180,
            "type" : "SCALAR"
        },
        {
            "bufferView" : 16,
            "componentType" : 5126,
            "count" : 90,
            "max" : [
                1.4643237590789795,
                1.0330829620361328,
                1.6908552646636963
            ],
            "min" : [
                -1.4643237590789795,
                -0.7703915238380432,
                -1.6908552646636963
            ],
            "type" : "VEC3"
        },
        {
            "bufferView" : 17,
            "componentType" : 5126,
            "count" : 90,
            "type" : "VEC3"
        },
        {
            "bufferView" : 18,
            "componentType" : 5126,
            "count" : 90,
            "type" : "VEC2"
        },
        {
            "bufferView" : 19,
            "componentType" : 5123,
            "count" : 156,
            "type" : "SCALAR"
        },
        {
            "bufferView" : 20,
            "componentType" : 5126,
            "count" : 72,
            "max" : [
                1.018285870552063,
                0.9625396728515625,
                1.179396390914917
            ],
            "min" : [
                -1.018285870552063,
                -0.9625398516654968,
                -1.179396390914917
            ],
            "type" : "VEC3"
        },
        {
            "bufferView" : 21,
            "componentType" : 5126,
            "count" : 72,
            "type" : "VEC3"
        },
        {
            "bufferView" : 22,
            "componentType" : 5126,
            "count" : 72,
            "type" : "VEC2"
        },
        {
            "bufferView" : 23,
            "componentType" : 5123,
            "count" : 132,
            "type" : "SCALAR"
        }
    ],
    "bufferViews" : [
        {
            "buffer" : 0,
            "byteLength" : 432,
            "byteOffset" : 0
        },
        {
            "buffer" : 0,
            "byteLength" : 432,
            "byteOffset" : 432
        },
        {
            "buffer" : 0,
            "byteLength" : 288,
            "byteOffset" : 864
        },
        {
            "buffer" : 0,
            "byteLength" : 120,
            "byteOffset" : 1152
        },
        {
            "buffer" : 0,
            "byteLength" : 1248,
            "byteOffset" : 1272
        },
        {
            "buffer" : 0,
            "byteLength" : 1248,
            "byteOffset" : 2520
        },
        {
            "buffer" : 0,
            "byteLength" : 832,
            "byteOffset" : 3768
        },
        {
            "buffer" : 0,
            "byteLength" : 336,
            "byteOffset" : 4600
        },
        {
            "buffer" : 0,
            "byteLength" : 1080,
            "byteOffset" : 4936
        },
        {
            "buffer" : 0,
            "byteLength" : 1080,
            "byteOffset" : 6016
        },
        {
            "buffer" : 0,
            "byteLength" : 720,
            "byteOffset" : 7096
        },
        {
            "buffer" : 0,
            "byteLength" : 312,
            "byteOffset" : 7816
        },
        {
            "buffer" : 0,
            "byteLength" : 1296,
            "byteOffset" : 8128
        },
        {
            "buffer" : 0,
            "byteLength" : 1296,
            "byteOffset" : 9424
        },
        {
            "buffer" : 0,
            "byteLength" : 864,
            "byteOffset" : 10720
        },
        {
            "buffer" : 0,
            "byteLength" : 360,
            "byteOffset" : 11584
        },
        {
            "buffer" : 0,
            "byteLength" : 1080,
            "byteOffset" : 11944
        },
        {
            "buffer" : 0,
            "byteLength" : 1080,
            "byteOffset" : 13024
        },
        {
            "buffer" : 0,
            "byteLength" : 720,
            "byteOffset" : 14104
        },
        {
            "buffer" : 0,
            "byteLength" : 312,
            "byteOffset" : 14824
        },
        {
            "buffer" : 0,
            "byteLength" : 864,
            "byteOffset" : 15136
        },
        {
            "buffer" : 0,
            "byteLength" : 864,
            "byteOffset" : 16000
        },
        {
            "buffer" : 0,
            "byteLength" : 576,
            "byteOffset" : 16864
        },
        {
            "buffer" : 0,
            "byteLength" : 264,
            "byteOffset" : 17440
        }
    ],
    "buffers" : [
        {
            "byteLength" : 17704,
            "uri" : "spruceTree2.bin"
        }
    ]
}
