{
  "accessors": [
    {
      "bufferView": 1,
      "componentType": 5126,
      "count": 324,
      "max": [
        2.1995172500610352,
        0.43132543563842773,
        7.8951430320739746
      ],
      "min": [
        -2.2790787220001221,
        -0.62637972831726074,
        0.052581787109375
      ],
      "type": "VEC3"
    },
    {
      "bufferView": 1,
      "byteOffset": 3888,
      "componentType": 5126,
      "count": 324,
      "max": [
        0.99999946355819702,
        0.93490958213806152,
        1
      ],
      "min": [
        -0.99751150608062744,
        -0.93724864721298218,
        -1
      ],
      "type": "VEC3"
    },
    {
      "bufferView": 2,
      "componentType": 5126,
      "count": 324,
      "max": [
        1,
        1,
        1,
        1
      ],
      "min": [
        1,
        1,
        1,
        1
      ],
      "type": "VEC4"
    },
    {
      "bufferView": 0,
      "componentType": 5125,
      "count": 504,
      "max": [
        323
      ],
      "min": [
        0
      ],
      "type": "SCALAR"
    },
    {
      "bufferView": 1,
      "byteOffset": 7776,
      "componentType": 5126,
      "count": 420,
      "max": [
        3.4930305480957031,
        2.0202031135559082,
        11.158499717712402
      ],
      "min": [
        -3.3836913108825684,
        -1.945711612701416,
        5.4005932807922363
      ],
      "type": "VEC3"
    },
    {
      "bufferView": 1,
      "byteOffset": 12816,
      "componentType": 5126,
      "count": 420,
      "max": [
        0.98180085420608521,
        0.96108096837997437,
        0.99614197015762329
      ],
      "min": [
        -0.98180049657821655,
        -0.97910076379776001,
        -0.95942336320877075
      ],
      "type": "VEC3"
    },
    {
      "bufferView": 2,
      "byteOffset": 5184,
      "componentType": 5126,
      "count": 420,
      "max": [
        1,
        1,
        1,
        1
      ],
      "min": [
        1,
        1,
        1,
        1
      ],
      "type": "VEC4"
    },
    {
      "bufferView": 0,
      "byteOffset": 2016,
      "componentType": 5125,
      "count": 420,
      "max": [
        419
      ],
      "min": [
        0
      ],
      "type": "SCALAR"
    }
  ],
  "asset": {
    "extras": {
      "author": "ookami (https://sketchfab.com/ookami)",
      "license": "CC-BY-4.0 (http://creativecommons.org/licenses/by/4.0/)",
      "source": "https://sketchfab.com/models/aa09cc9c80014e3d8a645311ca309fce",
      "title": "Cherry Tree in Bloom"
    },
    "generator": "Sketchfab-3.18.2",
    "version": "2.0"
  },
  "bufferViews": [
    {
      "buffer": 0,
      "byteLength": 3696,
      "byteOffset": 0,
      "name": "floatBufferViews",
      "target": 34963
    },
    {
      "buffer": 0,
      "byteLength": 17856,
      "byteOffset": 3696,
      "byteStride": 12,
      "name": "floatBufferViews",
      "target": 34962
    },
    {
      "buffer": 0,
      "byteLength": 11904,
      "byteOffset": 21552,
      "byteStride": 16,
      "name": "floatBufferViews",
      "target": 34962
    }
  ],
  "buffers": [
    {
      "byteLength": 33456,
      "uri": "scene.bin"
    }
  ],
  "materials": [
    {
      "doubleSided": true,
      "emissiveFactor": [
        0,
        0,
        0
      ],
      "name": "Blossom",
      "pbrMetallicRoughness": {
        "baseColorFactor": [
          1,
          0.32941199999999998,
          0.64313699999999996,
          1
        ],
        "metallicFactor": 0,
        "roughnessFactor": 0.59999999999999998
      }
    },
    {
      "doubleSided": true,
      "emissiveFactor": [
        0,
        0,
        0
      ],
      "name": "Trunk",
      "pbrMetallicRoughness": {
        "baseColorFactor": [
          0.090196100000000001,
          0.070588200000000004,
          0.050980400000000002,
          1
        ],
        "metallicFactor": 0,
        "roughnessFactor": 0.59999999999999998
      }
    }
  ],
  "meshes": [
    {
      "primitives": [
        {
          "attributes": {
            "COLOR_0": 2,
            "NORMAL": 1,
            "POSITION": 0
          },
          "indices": 3,
          "material": 1,
          "mode": 4
        }
      ]
    },
    {
      "primitives": [
        {
          "attributes": {
            "COLOR_0": 6,
            "NORMAL": 5,
            "POSITION": 4
          },
          "indices": 7,
          "material": 0,
          "mode": 4
        }
      ]
    }
  ],
  "nodes": [
    {
      "children": [
        1
      ],
      "name": "RootNode (gltf orientation matrix)",
      "rotation": [
        -0.70710678118654746,
        -0,
        -0,
        0.70710678118654757
      ]
    },
    {
      "children": [
        2
      ],
      "name": "RootNode (model correction matrix)"
    },
    {
      "children": [
        3,
        4
      ],
      "name": "35dbe2c5599d4adabb9a7e0c4d95796f.3ds"
    },
    {
      "mesh": 0,
      "name": ""
    },
    {
      "mesh": 1,
      "name": ""
    }
  ],
  "scene": 0,
  "scenes": [
    {
      "name": "OSG_Scene",
      "nodes": [
        0
      ]
    }
  ]
}

